<?xml version="1.0" encoding="utf-8"?>
<!-- Generator: Adobe Illustrator 23.0.3, SVG Export Plug-In . SVG Version: 6.00 Build 0)  -->
<svg version="1.1" id="Layer_1" focusable="false" xmlns="http://www.w3.org/2000/svg" xmlns:xlink="http://www.w3.org/1999/xlink"
	 x="0px" y="0px" viewBox="0 0 576 512" style="enable-background:new 0 0 576 512;" xml:space="preserve">
<style type="text/css">
	.st0{fill:#FFFFFF;}
</style>
<path class="st0" d="M475.4,209.8H331.5V65.9c0-24-19.5-43.5-43.5-43.5h0c-24,0-43.5,19.5-43.5,43.5v143.9H100.6
	c-24,0-43.5,19.5-43.5,43.5v0c0,24,19.5,43.5,43.5,43.5h143.9v143.9c0,24,19.5,43.5,43.5,43.5h0c24,0,43.5-19.5,43.5-43.5V296.8
	h143.9c24,0,43.5-19.5,43.5-43.5v0C518.9,229.3,499.4,209.8,475.4,209.8z"/>
</svg>
