<?xml version="1.0" encoding="utf-8"?>
<!-- Generator: Adobe Illustrator 21.0.1, SVG Export Plug-In . SVG Version: 6.00 Build 0)  -->
<svg version="1.1" id="Layer_1" focusable="false" xmlns="http://www.w3.org/2000/svg" xmlns:xlink="http://www.w3.org/1999/xlink"
	 x="0px" y="0px" viewBox="0 0 460 512" style="enable-background:new 0 0 460 512;" xml:space="preserve">
<style type="text/css">
	.st0{fill:#FFFFFF;}
</style>
<path class="st0" d="M220.6,130.3l-67.2,28.2V43.2L98.7,233.5l54.7-24.2v130.3L220.6,130.3L220.6,130.3z M137.4,33.6l-1.3,4.7
	l-15.2,52.9C80.6,106.7,52,145.8,52,191.5c0,52.3,34.3,95.9,83.4,105.5v53.6C57.5,340.1,0,272.4,0,191.6
	C0,111.1,59.8,44.4,137.4,33.6L137.4,33.6z M448.8,480.8c-11.2,11.2-23.1,12.3-28.6,10.5c-5.4-1.8-27.1-19.9-60.4-44.4
	c-33.3-24.6-33.6-35.7-43-56.7c-9.4-20.9-30.4-42.6-57.5-52.4l-9.7-14.7c-24.7,16.9-53,26.9-81.3,28.7l2.1-6.6l15.9-49.5
	c46.5-11.9,80.9-54,80.9-104.2c0-54.5-38.4-102.1-96-107.1V32.3C254.4,37.4,320,106.8,320,191.6c0,33.6-11.2,64.7-29,90.4l14.6,9.6
	c9.8,27.1,31.5,48,52.4,57.4s32.2,9.7,56.8,43c24.6,33.2,42.7,54.9,44.5,60.3S460,469.6,448.8,480.8L448.8,480.8z M438.9,462.9
	c0-4.4-3.6-8-8-8s-8,3.6-8,8s3.6,8,8,8S438.9,467.3,438.9,462.9z"/>
</svg>
